<?xml version="1.0" standalone="no"?>
<!DOCTYPE svg PUBLIC "-//W3C//DTD SVG 20010904//EN"
 "http://www.w3.org/TR/2001/REC-SVG-20010904/DTD/svg10.dtd">
<svg version="1.0" xmlns="http://www.w3.org/2000/svg"
 width="512.000000pt" height="487.000000pt" viewBox="0 0 512.000000 487.000000"
 preserveAspectRatio="xMidYMid meet">

<g transform="translate(0.000000,487.000000) scale(0.100000,-0.100000)"
fill="#000000" stroke="none">
<path d="M1634 3971 c-119 -29 -351 -130 -328 -143 5 -3 65 -22 134 -43 69
-21 172 -53 229 -72 58 -18 111 -33 118 -33 18 0 17 14 -11 100 -13 41 -32
102 -42 135 -9 33 -20 63 -23 66 -3 4 -38 -1 -77 -10z"/>
<path d="M2442 3887 c14 -18 27 -40 31 -50 5 -14 11 -16 27 -7 14 8 20 8 20 0
0 -6 5 -8 10 -5 6 3 20 3 31 0 17 -6 19 -9 8 -16 -8 -5 -16 -3 -21 4 -4 6 -10
8 -14 4 -4 -4 -2 -13 4 -19 7 -7 12 -16 12 -20 0 -16 -16 -7 -33 20 -17 25
-18 26 -11 3 3 -14 15 -33 25 -44 10 -12 21 -29 25 -39 3 -10 10 -18 15 -18 5
0 9 -5 9 -11 0 -6 11 -24 25 -41 14 -16 25 -25 25 -18 0 6 14 10 34 8 26 -1
33 -6 28 -17 -8 -24 -23 -41 -36 -41 -7 0 -6 3 2 9 10 6 10 10 -2 20 -25 21
-26 -4 -1 -41 22 -32 23 -37 9 -57 -15 -20 -14 -21 28 -21 46 0 78 13 60 24
-6 4 -25 4 -42 1 -26 -5 -29 -3 -18 8 9 10 22 12 50 5 23 -5 56 -4 84 2 40 9
48 8 59 -6 6 -9 17 -14 23 -10 7 4 12 2 12 -3 0 -6 -7 -11 -16 -11 -8 0 -12
-5 -9 -10 5 -8 -39 -10 -135 -9 -78 0 -144 -2 -147 -5 -4 -3 74 -5 173 -5 98
1 166 4 150 6 l-28 5 36 24 c36 24 47 44 25 44 -8 0 -8 5 1 15 7 8 17 15 22
15 6 0 4 -8 -3 -17 -12 -15 -12 -16 4 -10 10 4 21 7 23 7 14 0 0 20 -18 26
-21 7 -19 9 12 14 19 3 37 2 40 -1 3 -4 15 1 28 12 l23 18 -118 60 c-65 32
-130 61 -143 63 -14 1 -30 9 -36 17 -12 16 -38 5 -28 -11 4 -7 2 -8 -4 -4 -6
4 -9 12 -6 19 6 16 -72 50 -92 39 -12 -7 -10 -11 11 -22 14 -7 25 -17 25 -22
0 -5 9 -4 19 2 15 7 19 7 17 -5 -1 -8 -6 -18 -11 -22 -4 -4 -5 -2 -1 4 5 9 -3
11 -32 7 -29 -4 -42 -1 -53 12 -13 16 -12 16 8 6 42 -23 47 -5 6 20 -16 10
-22 18 -15 18 6 0 12 6 12 14 0 9 -9 12 -27 9 -22 -4 -25 -2 -13 6 8 6 10 11
5 11 -6 0 -16 -5 -22 -11 -8 -8 -17 -8 -31 0 -10 6 -23 7 -27 3 -5 -4 -5 -1
-1 6 5 9 12 9 27 1 12 -6 23 -8 26 -5 9 9 -40 24 -56 18 -10 -4 -12 -1 -6 7 6
10 3 11 -13 2 -32 -17 -54 -14 -48 7 4 13 -2 21 -25 29 l-30 12 23 -32z m87
-31 c-2 -2 -15 -9 -29 -15 -24 -11 -24 -11 -6 3 16 13 49 24 35 12z m192 -64
c-7 -2 -18 1 -23 6 -8 8 -4 9 13 5 13 -4 18 -8 10 -11z m-141 -45 c15 4 20 -2
25 -23 3 -16 10 -37 16 -46 15 -28 11 -33 -12 -12 -13 11 -19 27 -16 40 3 16
0 21 -11 17 -14 -6 -32 13 -31 32 0 6 3 5 5 -1 3 -7 14 -10 24 -7z m234 -22
c-4 -9 -15 -20 -25 -25 -14 -8 -17 -6 -16 9 1 14 5 17 13 10 8 -6 14 -5 18 6
3 8 8 15 10 15 3 0 3 -7 0 -15z m-177 -27 c-3 -8 -6 -5 -6 6 -1 11 2 17 5 13
3 -3 4 -12 1 -19z m108 13 c3 -5 1 -12 -4 -15 -5 -3 -11 1 -15 9 -6 16 9 21
19 6z m25 -37 c0 0 -11 -15 -25 -34 -26 -35 -33 -34 -14 2 8 15 8 22 -2 28 -7
5 -2 7 14 7 15 -1 27 -2 27 -3z m-76 -99 c-4 -8 -11 -15 -16 -15 -6 0 -5 6 2
15 7 8 14 15 16 15 2 0 1 -7 -2 -15z m231 -3 c-21 -17 -146 -43 -163 -33 -13
7 -8 11 23 15 22 4 58 11 80 15 55 12 71 13 60 3z m0 -32 c3 -5 2 -10 -4 -10
-5 0 -13 5 -16 10 -3 6 -2 10 4 10 5 0 13 -4 16 -10z"/>
<path d="M2485 3880 c-3 -5 -2 -10 4 -10 5 0 13 5 16 10 3 6 2 10 -4 10 -5 0
-13 -4 -16 -10z"/>
<path d="M3115 3600 c3 -5 8 -10 11 -10 2 0 4 5 4 10 0 6 -5 10 -11 10 -5 0
-7 -4 -4 -10z"/>
<path d="M3139 3578 c-8 -15 -13 -17 -19 -9 -10 17 -20 -21 -20 -79 -1 -25 -7
-75 -14 -111 l-12 -67 25 11 c14 6 38 19 53 29 14 10 33 18 40 18 24 0 28 11
13 40 -13 24 -13 29 0 34 9 3 12 0 9 -9 -3 -8 1 -21 9 -30 14 -14 19 -14 46 3
17 10 28 22 23 27 -4 4 1 5 11 2 9 -4 17 -2 17 4 0 6 7 8 16 5 9 -3 12 -2 8 5
-3 6 -17 8 -32 4 -23 -6 -24 -5 -11 11 12 16 12 17 -1 12 -11 -4 -16 0 -16 13
0 24 4 24 24 -2 11 -13 23 -18 34 -14 15 6 12 11 -18 31 -28 19 -39 22 -50 13
-8 -6 -14 -9 -14 -5 0 4 -11 -1 -25 -10 -14 -9 -28 -14 -32 -10 -3 3 -1 6 5 6
7 0 12 5 12 11 0 5 -4 8 -8 5 -11 -7 -12 26 -1 40 5 7 -4 17 -26 27 -33 16
-35 16 -46 -5z m-22 -120 c-2 -13 -4 -3 -4 22 0 25 2 35 4 23 2 -13 2 -33 0
-45z m168 -7 c6 -10 -21 -41 -36 -41 -13 0 -11 24 3 38 14 14 25 15 33 3z
m-106 -37 c9 -9 -45 -3 -59 6 -11 8 -5 9 20 5 19 -3 36 -8 39 -11z m-9 -25
l25 0 -23 -10 c-15 -6 -30 -5 -43 1 -16 9 -19 7 -19 -10 0 -12 5 -18 10 -15 6
3 10 1 10 -5 0 -21 -25 -4 -28 20 -4 25 17 45 32 30 6 -6 21 -10 36 -11z"/>
<path d="M1341 3574 c0 -11 3 -14 6 -6 3 7 2 16 -1 19 -3 4 -6 -2 -5 -13z"/>
<path d="M3230 3543 c0 -15 -2 -16 -10 -3 -5 8 -10 10 -10 4 0 -6 8 -18 18
-25 9 -7 14 -9 10 -5 -4 5 -3 15 3 22 7 8 7 14 -1 19 -5 3 -10 -2 -10 -12z"/>
<path d="M2806 3508 c-9 -5 -21 -6 -26 -3 -6 3 -10 1 -10 -5 0 -7 20 -10 55
-8 30 2 55 7 55 13 0 13 -52 15 -74 3z"/>
<path d="M1359 3477 c4 -4 52 -6 107 -5 l99 3 -107 5 c-59 3 -104 1 -99 -3z"/>
<path d="M2978 3473 c6 -2 18 -2 25 0 6 3 1 5 -13 5 -14 0 -19 -2 -12 -5z"/>
<path d="M3360 3470 c-9 -6 -10 -10 -3 -10 6 0 15 5 18 10 8 12 4 12 -15 0z"/>
<path d="M892 3437 c-109 -178 -160 -331 -183 -545 -21 -203 31 -462 131 -650
193 -362 536 -598 942 -648 265 -32 503 11 883 163 188 75 498 230 525 262 3
3 14 8 25 9 11 2 33 14 50 25 16 12 32 22 35 22 11 1 90 46 90 51 0 3 -4 3 -9
0 -5 -4 -11 -2 -13 3 -1 5 -34 24 -73 43 -38 19 -131 67 -205 105 -196 102
-377 193 -384 193 -3 0 -6 -28 -6 -61 l0 -62 -97 5 c-164 8 -203 43 -212 191
l-6 90 -150 78 c-82 42 -155 81 -161 87 -7 6 -35 23 -62 38 -28 15 -49 31 -47
34 3 4 -9 10 -26 14 -19 4 -29 11 -26 18 3 8 -5 14 -21 15 -15 0 -28 6 -30 12
-2 6 -10 11 -18 11 -9 0 -12 4 -9 10 3 5 0 7 -8 5 -7 -3 -26 6 -41 20 -15 13
-30 24 -34 23 -13 -4 -52 13 -52 23 0 5 -7 9 -14 9 -11 0 -16 14 -19 48 -2 26
-4 -128 -5 -342 l-2 -388 -98 4 c-118 4 -156 22 -189 88 -23 43 -23 51 -23
397 l0 353 -160 0 -160 0 0 63 c0 34 5 78 10 97 12 39 11 39 -81 92 l-48 28
-19 -33z m668 -1172 c0 -18 -5 -25 -20 -25 -15 0 -20 7 -20 25 0 18 5 25 20
25 15 0 20 -7 20 -25z m200 0 c0 -18 -5 -25 -20 -25 -15 0 -20 7 -20 25 0 18
5 25 20 25 15 0 20 -7 20 -25z m595 -101 c0 -105 -2 -119 -17 -122 -16 -3 -18
8 -18 116 0 65 3 122 7 126 21 21 28 -9 28 -120z m-1167 94 c3 -14 -3 -18 -27
-18 l-31 0 0 -100 c0 -91 -2 -100 -19 -100 -24 0 -31 26 -31 123 0 75 0 77
-25 77 -19 0 -25 5 -25 20 0 19 5 21 77 18 65 -3 78 -6 81 -20z m962 2 c0 -16
-7 -20 -30 -20 l-30 0 0 -101 c0 -90 -2 -100 -17 -97 -15 3 -18 17 -21 101
l-3 97 -29 0 c-23 0 -30 4 -30 20 0 18 7 20 80 20 73 0 80 -2 80 -20z m-910
-99 c0 -71 6 -86 34 -75 11 4 16 23 18 72 2 54 6 67 21 70 15 3 17 -6 17 -91
l0 -94 -47 0 c-72 -1 -83 14 -83 109 0 71 2 78 20 78 18 0 20 -7 20 -69z m245
45 c12 -17 15 -43 13 -92 -3 -61 -5 -69 -23 -69 -18 0 -20 8 -23 68 -3 64 -4
67 -27 67 -24 0 -25 -2 -25 -70 0 -63 -2 -70 -20 -70 -19 0 -20 7 -20 94 l0
94 55 1 c47 0 57 -3 70 -23z m75 -71 c0 -88 -1 -95 -20 -95 -19 0 -20 7 -20
95 0 88 1 95 20 95 19 0 20 -7 20 -95z m138 67 c3 -20 0 -23 -25 -22 -48 3
-49 1 -10 -25 31 -21 37 -32 37 -60 0 -38 -20 -55 -67 -55 -38 0 -57 14 -49
35 4 12 13 15 30 11 37 -9 40 10 6 34 -35 25 -46 59 -30 90 9 18 19 21 58 18
41 -3 47 -6 50 -26z m62 -67 c0 -88 -1 -95 -20 -95 -19 0 -20 7 -20 95 0 88 1
95 20 95 19 0 20 -7 20 -95z m144 73 c9 -12 16 -37 16 -55 0 -32 -1 -33 -46
-33 -56 0 -57 -23 0 -28 22 -2 40 -10 43 -19 14 -37 -77 -46 -114 -11 -31 29
-33 114 -3 146 28 30 83 30 104 0z m369 5 c8 -10 18 -35 22 -55 l7 -38 -51 0
c-28 0 -51 -4 -51 -10 0 -15 33 -28 63 -23 25 3 28 1 25 -19 -4 -33 -77 -39
-107 -9 -26 26 -29 115 -5 149 19 27 74 30 97 5z m213 9 c17 -11 34 -48 34
-76 0 -23 -4 -25 -52 -28 -50 -3 -51 -4 -34 -21 13 -13 27 -16 47 -12 22 5 31
2 35 -10 16 -41 -73 -49 -111 -10 -51 50 -21 165 43 165 15 0 32 -4 38 -8z
m159 -17 c0 -15 -8 -21 -32 -23 -32 -3 -33 -5 -33 -47 0 -44 10 -55 52 -55 13
0 18 -6 16 -17 -5 -26 -59 -29 -88 -5 -20 16 -24 29 -24 75 0 71 22 99 73 95
28 -2 36 -7 36 -23z m121 17 c38 -25 46 -114 13 -156 -22 -28 -48 -33 -82 -15
-32 17 -37 28 -37 83 0 37 5 55 22 73 21 22 62 30 84 15z m254 -13 c6 -10 10
-52 8 -92 -3 -64 -5 -72 -23 -72 -18 0 -20 8 -23 68 -2 51 -6 67 -17 67 -11 0
-15 -14 -15 -57 0 -65 -10 -89 -34 -80 -12 5 -16 21 -16 72 0 49 -3 65 -14 65
-19 0 -26 -22 -26 -86 0 -47 -2 -54 -20 -54 -19 0 -20 7 -20 94 l0 94 95 0
c84 1 96 -1 105 -19z"/>
<path d="M1830 2170 c0 -5 9 -10 20 -10 11 0 20 5 20 10 0 6 -9 10 -20 10 -11
0 -20 -4 -20 -10z"/>
<path d="M2205 2170 c-4 -6 5 -10 20 -10 15 0 24 4 20 10 -3 6 -12 10 -20 10
-8 0 -17 -4 -20 -10z"/>
<path d="M2430 2165 c0 -16 9 -19 34 -9 20 8 11 24 -15 24 -10 0 -19 -7 -19
-15z"/>
<path d="M2705 2161 c-10 -31 5 -71 26 -71 20 0 34 34 27 67 -5 26 -45 29 -53
4z"/>
<path d="M1660 3160 c0 -11 2 -20 4 -20 2 0 6 9 9 20 3 11 1 20 -4 20 -5 0 -9
-9 -9 -20z"/>
<path d="M2702 3155 c0 -16 2 -22 5 -12 2 9 2 23 0 30 -3 6 -5 -1 -5 -18z"/>
<path d="M2358 3138 c-19 -25 -28 -49 -28 -73 0 -22 -4 -34 -10 -30 -6 3 -7
18 -4 33 l6 27 -17 -25 c-10 -14 -29 -37 -43 -52 -19 -21 -22 -28 -10 -28 8 0
20 11 26 25 13 29 30 32 39 9 6 -15 8 -15 20 2 7 10 13 15 13 11 0 -4 9 1 21
11 16 16 20 29 17 73 l-3 53 -27 -36z m-11 -65 c-3 -10 -5 -4 -5 12 0 17 2 24
5 18 2 -7 2 -21 0 -30z"/>
<path d="M1768 3153 c7 -3 16 -2 19 1 4 3 -2 6 -13 5 -11 0 -14 -3 -6 -6z"/>
<path d="M2290 3002 c0 -11 -29 -24 -42 -19 -8 3 -75 -70 -90 -98 -5 -11 6 -4
25 15 19 19 32 39 29 44 -3 5 2 6 12 3 10 -4 15 -3 11 3 -3 6 0 10 8 10 20 0
64 37 55 46 -5 4 -8 2 -8 -4z"/>
<path d="M1507 1363 c-4 -3 -7 -17 -7 -30 0 -18 5 -23 25 -23 21 0 25 5 25 30
0 22 -5 30 -18 30 -10 0 -22 -3 -25 -7z"/>
<path d="M2762 1339 l-24 -29 24 0 c14 0 37 13 53 30 l29 30 -30 -1 c-20 0
-36 -9 -52 -30z"/>
<path d="M3680 1340 c0 -25 4 -30 25 -30 21 0 25 5 25 30 0 25 -4 30 -25 30
-21 0 -25 -5 -25 -30z"/>
<path d="M733 1353 c-14 -5 -19 -259 -5 -279 13 -20 50 -34 91 -34 52 0 71 8
71 31 0 15 -9 18 -57 21 l-58 3 -5 129 c-5 125 -9 141 -37 129z"/>
<path d="M2448 1323 c-10 -2 -18 -13 -18 -24 0 -14 -7 -19 -26 -19 -19 0 -25
-5 -22 -17 2 -10 13 -19 25 -21 19 -3 21 -10 25 -93 3 -99 9 -109 66 -109 25
0 32 4 32 19 0 13 -8 21 -22 23 -21 3 -23 9 -26 81 -3 77 -3 77 23 77 18 0 25
5 25 20 0 15 -7 20 -25 20 -20 0 -25 5 -25 25 0 25 -1 26 -32 18z"/>
<path d="M3558 1323 c-10 -2 -18 -13 -18 -24 0 -14 -7 -19 -26 -19 -33 0 -30
-33 4 -38 21 -3 22 -8 22 -92 0 -80 2 -90 20 -100 30 -16 74 -9 78 13 3 12 -3
17 -22 17 -26 0 -26 1 -26 80 0 79 0 80 26 80 33 0 30 33 -4 38 -16 3 -22 10
-22 28 0 24 -2 25 -32 17z"/>
<path d="M943 1273 c-7 -2 -13 -11 -13 -19 0 -10 14 -14 54 -14 40 0 55 -4 60
-16 14 -36 7 -44 -37 -44 -53 0 -87 -27 -87 -70 0 -51 28 -68 109 -67 l71 1 0
97 c0 93 -1 98 -26 118 -26 20 -98 28 -131 14z m107 -152 c0 -29 -14 -41 -50
-41 -23 0 -33 26 -20 51 7 12 21 19 40 19 26 0 30 -4 30 -29z"/>
<path d="M1250 1275 c0 -24 56 -204 69 -218 21 -25 63 -18 77 13 7 14 23 67
37 118 l25 92 -27 0 c-26 0 -28 -4 -50 -100 -12 -55 -26 -98 -31 -95 -5 3 -14
31 -21 63 -26 127 -28 132 -54 132 -14 0 -25 -2 -25 -5z"/>
<path d="M1500 1159 c0 -119 0 -120 23 -117 21 3 22 7 25 121 l3 117 -26 0
-25 0 0 -121z"/>
<path d="M1653 1270 c-68 -28 -70 -180 -2 -215 29 -15 95 -20 123 -9 9 3 16
15 16 26 0 18 -5 19 -40 13 -44 -8 -90 13 -90 40 0 12 15 15 70 15 l70 0 0 41
c0 75 -72 119 -147 89z m79 -47 c31 -28 22 -43 -27 -43 -38 0 -45 3 -45 20 0
18 23 39 44 40 5 0 18 -7 28 -17z"/>
<path d="M1984 1257 c-21 -18 -28 -35 -32 -75 -8 -90 32 -142 110 -142 53 0
78 10 78 32 0 17 -5 18 -49 12 -41 -5 -52 -3 -70 15 -11 11 -21 25 -21 31 0 5
33 10 73 12 70 3 72 4 75 30 10 86 -98 142 -164 85z m103 -47 c12 -25 12 -25
-33 -28 -26 -2 -49 -1 -51 2 -3 3 2 17 11 31 21 33 55 30 73 -5z"/>
<path d="M2210 1260 c-37 -37 -22 -75 45 -115 63 -36 58 -59 -13 -63 -28 -2
-52 -7 -52 -12 0 -27 92 -40 131 -19 28 14 41 54 28 82 -6 12 -33 35 -60 51
-28 15 -48 33 -46 39 2 7 27 13 55 15 35 2 52 7 52 16 0 33 -109 37 -140 6z"/>
<path d="M2699 1251 c-24 -25 -29 -38 -29 -80 0 -66 13 -97 49 -116 53 -27
141 -17 141 17 0 17 -5 18 -49 12 -41 -5 -52 -3 -70 15 -11 11 -21 25 -21 31
0 5 33 10 73 12 l72 3 -1 44 c-1 35 -7 49 -28 68 -40 34 -99 32 -137 -6z m101
-31 c31 -31 24 -40 -30 -40 -54 0 -61 9 -30 40 11 11 25 20 30 20 6 0 19 -9
30 -20z"/>
<path d="M2920 1160 l0 -120 25 0 c25 0 25 1 25 90 0 80 2 90 21 100 40 22 48
7 51 -92 3 -88 4 -93 26 -96 21 -3 22 -1 22 85 0 92 8 113 42 113 28 0 38 -33
38 -120 0 -79 1 -81 23 -78 20 3 22 9 25 83 3 90 -1 117 -24 139 -17 17 -70
21 -93 7 -7 -5 -25 -4 -42 2 -21 8 -37 8 -59 0 -16 -6 -30 -7 -30 -2 0 5 -11
9 -25 9 l-25 0 0 -120z"/>
<path d="M3305 1257 c-29 -25 -42 -82 -31 -142 5 -26 16 -41 39 -55 39 -24 68
-25 107 -5 35 18 45 48 43 125 -1 45 -5 58 -27 77 -36 31 -96 31 -131 0z m95
-37 c32 -32 22 -119 -16 -134 -9 -3 -27 1 -40 9 -44 29 -26 145 23 145 7 0 22
-9 33 -20z"/>
<path d="M3680 1160 l0 -120 25 0 25 0 0 120 0 120 -25 0 -25 0 0 -120z"/>
<path d="M3833 1270 c-68 -28 -70 -180 -2 -215 45 -24 87 -19 120 14 26 26 29
36 29 91 0 55 -3 65 -29 91 -31 30 -73 37 -118 19z m79 -47 c26 -23 25 -96 -3
-124 -18 -18 -23 -19 -42 -6 -30 20 -37 115 -11 134 23 17 34 16 56 -4z"/>
<path d="M4035 1272 c-7 -8 -6 -197 1 -216 3 -9 14 -16 24 -16 24 0 33 40 25
115 l-7 62 31 13 c53 22 60 11 63 -92 3 -88 4 -93 26 -96 22 -3 22 -2 22 101
0 131 -5 137 -108 135 -40 -1 -74 -4 -77 -6z"/>
<path d="M4290 1260 c-15 -15 -20 -29 -16 -43 3 -12 6 -25 6 -29 0 -3 23 -20
51 -37 66 -41 65 -66 -4 -65 -38 0 -47 -3 -47 -17 0 -35 92 -41 134 -8 46 36
30 80 -48 128 -53 33 -47 51 15 51 43 0 50 3 47 18 -2 13 -15 18 -60 20 -47 2
-61 -1 -78 -18z"/>
</g>
</svg>
